<?xml version="1.0" encoding="UTF-8" standalone="no"?>
<!-- Created with Inkscape (http://www.inkscape.org/) -->

<svg
   version="1.1"
   id="svg1"
   width="1280"
   height="350"
   viewBox="0 0 1280 350"
   xml:space="preserve"
   xmlns="http://www.w3.org/2000/svg"
   xmlns:svg="http://www.w3.org/2000/svg"><defs
     id="defs1" /><g
     id="g1"><g
       id="g5"
       transform="matrix(0.98071147,0,0,0.98071147,17.068798,-18.96271)"><path
         id="path2"
         style="display:inline;fill:#1f467d;fill-opacity:1;stroke-width:0.918828"
         d="m 953.9916,98.568634 c -4.38213,0.019 -7.80703,0.24529 -10.08643,0.6354 v 67.058096 a 98.985929,98.985929 0 0 1 63.10643,-62.40785 c -22.16348,-3.81469 -41.14514,-5.337276 -53.02,-5.285646 z m 164.5444,42.506296 a 98.985929,98.985929 0 0 1 17.9453,56.78963 98.985929,98.985929 0 0 1 -0.7265,10.16258 l -11.0302,-6.36879 v -8.39574 l -15.0339,-8.67999 -14.2462,8.22482 v 8.26568 l -7.2159,4.16535 v -21.97122 l -36.0372,-20.80633 v -9.49002 l -13.8579,-8.00001 -15.634,6.95217 v 10.03252 l -34.45428,19.89226 v 22.87228 l -7.5002,-2.00836 v -8.94937 l -15.22531,-8.78775 -14.29635,8.25267 v 8.28798 l -7.31819,4.22667 v 6.67719 l 18.79984,-10.85555 v 36.9977 12.19695 11.94613 a 98.985929,98.985929 0 0 1 -18.79984,-33.26524 v 67.54859 c 0,0 18.69834,-11.09205 51.11385,-19.24015 V 250.75825 238.5613 186.0615 l 40.04458,-23.11753 v 87.05812 0.75616 20.05575 c 15.3629,-1.54816 32.2638,-2.07394 50.6661,-0.74316 1.0429,0.0754 2.0637,0.0822 3.0989,0.13377 v -19.44636 -0.75616 -37.02372 l 19.1139,-11.03391 v 44.46822 h -0.013 v 20.64656 2.71063 c 74.3023,-6.84142 124.9159,-74.5584 129.3489,-126.48407 0.139,-1.6275 -0.019,0.18842 0.1041,-1.25406 -0.062,0.054 -0.1022,0.0817 -0.1022,0.0817 0,0 -47.4113,40.18115 -115.4873,0.7803 -1.0749,-0.62206 -2.1708,-1.21266 -3.2569,-1.81885 z" /><text
         xml:space="preserve"
         style="font-size:129.318px;text-align:start;writing-mode:lr-tb;direction:ltr;text-anchor:start;fill:#59595b;fill-opacity:1;stroke-width:0.74607"
         x="32.541389"
         y="207.96867"
         id="text2"><tspan
           x="32.541389"
           y="207.96867"
           id="tspan3"
           style="font-style:normal;font-variant:normal;font-weight:bold;font-stretch:normal;font-size:129.318px;font-family:Arial;-inkscape-font-specification:'Arial Bold';fill:#59595b;fill-opacity:1;stroke-width:0.74607">WAREHOUSE</tspan></text><text
         xml:space="preserve"
         style="font-size:100.327px;text-align:start;writing-mode:lr-tb;direction:ltr;text-anchor:start;fill:#59595b;fill-opacity:1;stroke-width:0.752455"
         x="251.34134"
         y="330.61249"
         id="text4"
         transform="scale(1.1579727,0.86357821)"><tspan
           x="251.34134"
           y="330.61249"
           id="tspan4"
           style="font-style:normal;font-variant:normal;font-weight:normal;font-stretch:condensed;font-size:100.327px;font-family:Arial;-inkscape-font-specification:'Arial Condensed';fill:#59595b;fill-opacity:1;stroke-width:0.752455">REFERENCE</tspan></text><text
         xml:space="preserve"
         style="font-size:49.738px;text-align:start;writing-mode:lr-tb;direction:ltr;text-anchor:start;fill:#59595b;fill-opacity:1;stroke-width:0.74607"
         x="106.60712"
         y="-893.7572"
         id="text5"
         transform="rotate(90)"><tspan
           x="106.60712"
           y="-893.7572"
           id="tspan5"
           style="font-style:normal;font-variant:normal;font-weight:bold;font-stretch:normal;font-size:49.738px;font-family:Arial;-inkscape-font-specification:'Arial Bold';fill:#59595b;fill-opacity:1;stroke-width:0.74607">GAMES</tspan></text></g></g></svg>
